Coordinates
version=1
nRows=18
nColumns=63
inDegrees=yes

Units are S.I. units (second, meters, Newtons, ...)
If the header above contains a line with 'inDegrees', this indicates whether rotational values are in degrees (yes) or radians (no).

endheader
time	pelvis_tilt	pelvis_list	pelvis_rotation	pelvis_tx	pelvis_ty	pelvis_tz	hip_flexion_r	hip_adduction_r	hip_rotation_r	knee_angle_r	knee_angle_r_beta	ankle_angle_r	subtalar_angle_r	mtp_angle_r	hip_flexion_l	hip_adduction_l	hip_rotation_l	knee_angle_l	knee_angle_l_beta	ankle_angle_l	subtalar_angle_l	mtp_angle_l	L5_S1_Flex_Ext	L5_S1_Lat_Bending	L5_S1_axial_rotation	L4_L5_Flex_Ext	L4_L5_Lat_Bending	L4_L5_axial_rotation	L3_L4_Flex_Ext	L3_L4_Lat_Bending	L3_L4_axial_rotation	L2_L3_Flex_Ext	L2_L3_Lat_Bending	L2_L3_axial_rotation	L1_L2_Flex_Ext	L1_L2_Lat_Bending	L1_L2_axial_rotation	L1_T12_Flex_Ext	L1_T12_Lat_Bending	L1_T12_axial_rotation	Abs_r3	Abs_r2	Abs_r1	Abs_t1	Abs_t2	neck_flexion	neck_bending	neck_rotation	arm_flex_r	arm_add_r	arm_rot_r	elbow_flex_r	pro_sup_r	wrist_flex_r	wrist_dev_r	arm_flex_l	arm_add_l	arm_rot_l	elbow_flex_l	pro_sup_l	wrist_flex_l	wrist_dev_l
7.898305	5.656110	0.047352	91.922589	0.261039	0.754240	0.498787	-5.024687	5.477308	15.776782	7.484168	0.130623	33.244642	-15.759435	0.000000	-1.240251	-7.418702	-7.714887	18.801633	0.328150	45.992204	9.490132	0.000000	-0.427528	0.867570	0.872992	-0.793963	1.153868	0.927554	-0.702386	2.109409	0.927554	-0.488622	2.109409	0.763868	-0.397003	1.769149	0.709306	-0.244290	1.343866	0.654744	-3.053791	9.814124	4.855319	0.000000	0.000000	-7.225363	-4.166621	-0.747852	72.264516	-5.906636	41.495571	45.584657	58.955527	-9.261646	1.761711	16.920407	-11.909016	57.159644	98.525077	82.517472	-6.968979	11.487112
7.915254	5.853903	0.253699	92.477394	0.259258	0.754411	0.498398	-5.451048	5.645156	15.151615	7.208532	0.125813	33.079131	-15.724487	0.000000	-1.205984	-7.606047	-7.192269	19.105832	0.333460	46.254065	9.627964	0.000000	-0.399315	0.905953	0.887270	-0.741568	1.204917	0.942725	-0.656035	2.202733	0.942725	-0.456377	2.202733	0.776362	-0.370804	1.847418	0.720907	-0.228169	1.403321	0.665453	-2.852269	10.248317	4.934732	0.000000	0.000000	-7.511197	-4.178060	-1.026718	73.138641	-6.715535	43.441795	42.897497	55.380247	-8.959788	1.816299	18.633668	-11.530430	53.401486	97.285162	80.531691	-7.187452	11.407019
7.932203	5.969042	0.468923	92.976623	0.257655	0.754587	0.497874	-5.898110	5.728921	14.601194	6.921473	0.120802	32.937458	-15.677714	0.000000	-1.221330	-7.716629	-6.768581	19.370555	0.338080	46.483440	9.812433	0.000000	-0.371701	0.928252	0.881744	-0.690285	1.234575	0.936853	-0.610667	2.256951	0.936853	-0.424817	2.256951	0.771526	-0.345161	1.892891	0.716417	-0.212390	1.437862	0.661308	-2.655021	10.500567	4.903993	0.000000	0.000000	-7.839734	-4.192634	-1.167648	73.391354	-7.521175	44.999333	41.358575	52.717840	-8.542677	2.041593	20.398015	-11.102329	49.004871	95.821964	79.059731	-6.849030	11.117776
7.949153	6.000570	0.683710	93.389733	0.256306	0.754741	0.497260	-6.341407	5.729943	14.159490	6.641175	0.115910	32.831028	-15.629544	0.000000	-1.289686	-7.750458	-6.481530	19.581582	0.341763	46.670677	10.040473	0.000000	-0.345774	0.934955	0.860649	-0.642136	1.243491	0.914439	-0.568071	2.273250	0.914439	-0.395185	2.273250	0.753068	-0.321085	1.906561	0.699277	-0.197575	1.448246	0.645487	-2.469826	10.576401	4.786670	0.000000	0.000000	-8.209104	-4.226988	-1.165351	73.147721	-8.222770	46.061823	40.721726	51.026325	-8.053072	2.236502	22.036950	-10.618772	44.183550	94.262228	77.998276	-6.097497	10.653672
7.966102	5.970505	0.889506	93.720293	0.255182	0.754834	0.496597	-6.762925	5.670825	13.819339	6.378686	0.111329	32.772611	-15.570768	0.000000	-1.400547	-7.728937	-6.313504	19.742193	0.344566	46.826807	10.303395	0.000000	-0.323283	0.930354	0.825009	-0.600369	1.237371	0.876572	-0.531122	2.262063	0.876572	-0.369480	2.262063	0.721883	-0.300201	1.897178	0.670320	-0.184724	1.441118	0.618757	-2.309179	10.524350	4.588453	0.000000	0.000000	-8.577770	-4.298603	-1.037613	72.522774	-8.798285	46.570366	40.802584	50.189261	-7.524460	2.332375	23.422312	-10.075309	39.170917	92.703725	77.343938	-5.102477	10.022468
7.983051	5.887923	1.076001	93.961347	0.254302	0.754859	0.495879	-7.154031	5.558119	13.591878	6.131742	0.107019	32.747495	-15.514407	0.000000	-1.553006	-7.655526	-6.243591	19.838240	0.346243	46.941202	10.557640	0.000000	-0.303757	0.916489	0.776293	-0.564106	1.218931	0.824812	-0.499042	2.228352	0.824812	-0.347163	2.228352	0.679257	-0.282068	1.868905	0.630738	-0.173566	1.419642	0.582220	-2.169702	10.367510	4.317511	0.000000	0.000000	-8.922586	-4.388581	-0.777959	71.627735	-9.217785	46.573278	41.334575	50.322373	-7.150204	2.095403	24.512112	-9.510605	34.331821	91.142673	77.100472	-4.469987	8.836897
8.000000	5.775374	1.238100	94.127184	0.253604	0.754812	0.495116	-7.505493	5.415640	13.438956	5.909325	0.103137	32.763240	-15.444274	0.000000	-1.731363	-7.551590	-6.239398	19.886285	0.347081	47.018562	10.786547	0.000000	-0.287247	0.897544	0.714041	-0.533446	1.193733	0.758668	-0.471918	2.182288	0.758668	-0.328295	2.182288	0.624786	-0.266738	1.830271	0.580158	-0.164133	1.390295	0.535530	-2.051776	10.153193	3.971279	0.000000	0.000000	-9.237595	-4.501920	-0.405103	70.561724	-9.490347	46.154313	42.121987	51.194180	-6.830169	1.512269	25.313821	-8.890622	29.967082	89.535933	77.257106	-4.730054	6.839221
8.016949	5.653854	1.358195	94.176741	0.253128	0.754696	0.494291	-7.799838	5.256529	13.429735	5.709170	0.099644	32.790032	-15.398649	0.000000	-1.934391	-7.431126	-6.335172	19.866182	0.346730	47.060165	10.975091	0.000000	-0.271414	0.877558	0.645912	-0.504043	1.167152	0.686282	-0.445906	2.133694	0.686282	-0.310199	2.133694	0.565173	-0.252035	1.789516	0.524804	-0.155086	1.359337	0.484434	-1.938684	9.927111	3.592371	0.000000	0.000000	-9.496115	-4.647696	0.104536	69.422837	-9.601677	45.446858	42.958428	52.975783	-6.669027	0.648828	25.840578	-8.215829	26.277133	87.908608	77.789632	-6.108646	4.149038
8.033898	5.522073	1.456398	94.158775	0.252833	0.754540	0.493436	-8.048327	5.087126	13.506019	5.553745	0.096931	32.836937	-15.372211	0.000000	-2.161123	-7.298591	-6.492356	19.796286	0.345510	47.066645	11.115988	0.000000	-0.259306	0.856461	0.568842	-0.481558	1.139093	0.604394	-0.426015	2.082400	0.604394	-0.296361	2.082400	0.497736	-0.240792	1.746496	0.462184	-0.148168	1.326658	0.426631	-1.852200	9.688460	3.163727	0.000000	0.000000	-9.692139	-4.849007	0.683524	68.316201	-9.563279	44.685969	43.655870	55.106047	-6.665531	-0.479623	26.157460	-7.554976	23.404303	86.359957	78.674317	-8.387790	1.142020
8.050847	5.390311	1.526936	94.074636	0.252730	0.754354	0.492541	-8.253002	4.915498	13.666253	5.425786	0.094698	32.888945	-15.367613	0.000000	-2.408468	-7.161586	-6.697066	19.665539	0.343228	47.037537	11.209885	0.000000	-0.248577	0.835634	0.490805	-0.461632	1.111394	0.521481	-0.408387	2.031761	0.521481	-0.284099	2.031761	0.429455	-0.230829	1.704025	0.398779	-0.142037	1.294398	0.368104	-1.775561	9.452862	2.729712	0.000000	0.000000	-9.840917	-5.057800	1.325667	67.307140	-9.417851	44.087498	44.138737	57.239758	-6.799465	-1.734449	26.290590	-6.980912	21.368505	85.028395	79.884864	-10.941009	-1.674877
8.067797	5.264411	1.594001	93.954874	0.252734	0.754164	0.491670	-8.436055	4.746512	13.889682	5.325820	0.092953	32.949070	-15.383348	0.000000	-2.683924	-7.025936	-6.926904	19.486103	0.340097	46.991930	11.284446	0.000000	-0.243169	0.816591	0.418920	-0.451590	1.086066	0.445103	-0.399503	1.985459	0.445103	-0.277918	1.985459	0.366555	-0.225807	1.665192	0.340373	-0.138947	1.264899	0.314190	-1.736935	9.237439	2.329909	0.000000	0.000000	-9.922027	-5.267565	1.943947	66.422935	-9.234196	43.667119	44.410722	59.528473	-6.978353	-2.957079	26.366529	-6.542882	20.257030	83.970416	81.324560	-13.414012	-4.009680
8.084746	5.151592	1.645549	93.767211	0.252889	0.753990	0.490796	-8.588183	4.583936	14.181160	5.246111	0.091562	33.003892	-15.409490	0.000000	-2.974841	-6.892842	-7.179828	19.272322	0.336365	46.917075	11.309568	0.000000	-0.237960	0.800661	0.359002	-0.441916	1.064879	0.381440	-0.390945	1.946726	0.381440	-0.271965	1.946726	0.314127	-0.220970	1.632707	0.291689	-0.135971	1.240223	0.269251	-1.699727	9.057232	1.996661	0.000000	0.000000	-10.016572	-5.463973	2.581816	65.685638	-9.045137	43.691801	44.498149	61.443322	-7.332305	-4.235193	26.297723	-6.270577	19.791041	83.203726	82.916392	-15.059511	-5.682076
8.101695	5.043657	1.711403	93.524715	0.253216	0.753876	0.489980	-8.735344	4.426446	14.545538	5.192831	0.090632	33.056181	-15.464539	0.000000	-3.296338	-6.759631	-7.450584	19.041439	0.332336	46.820687	11.304756	0.000000	-0.237071	0.785002	0.318835	-0.440264	1.044053	0.338762	-0.389484	1.908654	0.338762	-0.270948	1.908654	0.278981	-0.220144	1.600776	0.259054	-0.135462	1.215968	0.239126	-1.693373	8.880100	1.773265	0.000000	0.000000	-10.123119	-5.588578	3.143418	64.989521	-8.904716	43.817107	44.558582	63.339188	-7.628077	-5.273670	26.127020	-6.193128	19.798435	82.738791	84.411049	-15.763775	-6.591069
8.118644	4.945592	1.784722	93.225482	0.253704	0.753832	0.489212	-8.876548	4.277832	14.969313	5.153510	0.089946	33.092214	-15.537327	0.000000	-3.630940	-6.631965	-7.739043	18.813088	0.328350	46.705717	11.274959	0.000000	-0.237315	0.770419	0.295998	-0.440718	1.024657	0.314497	-0.389885	1.873197	0.314497	-0.271228	1.873197	0.258998	-0.220371	1.571039	0.240498	-0.135602	1.193379	0.221998	-1.695119	8.715134	1.646249	0.000000	0.000000	-10.270939	-5.621935	3.663999	64.280393	-8.832499	44.003297	44.710387	65.169833	-7.794976	-6.057801	25.758879	-6.287096	19.938261	82.584862	85.715415	-15.551809	-6.797759
8.135593	4.844501	1.866558	92.874151	0.254355	0.753863	0.488488	-9.010417	4.127577	15.454173	5.137361	0.089664	33.113257	-15.636730	0.000000	-3.967046	-6.498363	-8.035100	18.610084	0.324807	46.570711	11.221536	0.000000	-0.237232	0.753813	0.294660	-0.440563	1.002571	0.313077	-0.389748	1.832821	0.313077	-0.271132	1.832821	0.257828	-0.220294	1.537175	0.239412	-0.135554	1.167656	0.220995	-1.694524	8.527282	1.638812	0.000000	0.000000	-10.465384	-5.502174	4.086016	63.465256	-8.901331	44.154877	45.177259	66.674775	-7.809098	-6.404225	25.164287	-6.463351	19.985593	82.738747	86.877576	-14.689051	-6.315399
8.152542	4.795899	1.973175	92.489114	0.255006	0.753956	0.487844	-9.159218	4.025583	15.957730	5.129435	0.089526	33.113876	-15.747093	0.000000	-4.299714	-6.411142	-8.327902	18.464821	0.322272	46.460377	11.131443	0.000000	-0.240439	0.745773	0.293073	-0.446519	0.991879	0.311390	-0.395017	1.813273	0.311390	-0.274797	1.813273	0.256439	-0.223271	1.520781	0.238122	-0.137387	1.155203	0.219805	-1.717429	8.436337	1.629986	0.000000	0.000000	-10.641155	-5.347269	4.573679	62.664245	-9.111267	44.430391	45.919977	67.782219	-7.478702	-6.532622	24.313480	-6.658998	19.899149	83.144248	87.863687	-13.990141	-5.805529
8.169492	4.774841	2.086299	92.071889	0.255688	0.754089	0.487227	-9.308824	3.948187	16.479630	5.130465	0.089543	33.094879	-15.870210	0.000000	-4.608332	-6.346214	-8.613447	18.383576	0.320854	46.371104	11.005239	0.000000	-0.242043	0.741060	0.291060	-0.449498	0.985610	0.309251	-0.397652	1.801814	0.309251	-0.276631	1.801814	0.254677	-0.224761	1.511170	0.236486	-0.138303	1.147903	0.218295	-1.728887	8.383023	1.618788	0.000000	0.000000	-10.811270	-5.133276	5.094154	61.761749	-9.454435	44.674606	47.099898	68.507233	-6.999613	-6.323221	23.264207	-6.839167	19.718139	83.732219	88.537842	-13.600226	-5.386320
8.186441	4.775380	2.186660	91.646610	0.256373	0.754231	0.486628	-9.444986	3.892805	16.999307	5.131760	0.089566	33.055733	-16.001410	0.000000	-4.871980	-6.302010	-8.881026	18.353783	0.320334	46.307080	10.858760	0.000000	-0.238765	0.737146	0.279512	-0.443411	0.980404	0.296981	-0.392267	1.792296	0.296981	-0.272885	1.792296	0.244573	-0.221717	1.503188	0.227103	-0.136430	1.141839	0.209634	-1.705475	8.338740	1.554561	0.000000	0.000000	-10.966413	-4.858482	5.649979	60.719924	-9.918222	44.832252	48.766210	68.829254	-6.529994	-5.855624	22.047931	-7.059460	19.448407	84.505106	88.780605	-13.304268	-5.082455
